<?xml version="1.0" encoding="iso-8859-1"?>
<!-- Uploaded to: SVG Repo, www.svgrepo.com, Generator: SVG Repo Mixer Tools -->
<svg fill="#ebd189" stroke-width="10" stroke="#ebd189" height="800px" width="800px" version="1.1" id="Layer_1" xmlns="http://www.w3.org/2000/svg" xmlns:xlink="http://www.w3.org/1999/xlink" 
	 viewBox="0 0 512 512" xml:space="preserve">
<g>
	<g>
		<path d="M495.423,236.255c-8.681-8.692-19.694-14.21-31.635-15.971c-4.156-61.453-55.469-110.182-117.959-110.182H166.171
			c-62.493,0-113.81,48.735-117.96,110.194C20.967,224.36,0,247.909,0,276.267c0,15.135,5.891,29.352,16.578,40.024
			c8.612,8.623,19.521,14.116,31.351,15.923v29.383c0,22.223,18.08,40.301,40.301,40.301H423.77
			c22.223,0,40.301-18.08,40.301-40.301v-29.386C491.179,328.027,512,304.534,512,276.267
			C512,261.14,506.11,246.927,495.423,236.255z M154.021,128.194v29.55c0,4.788,3.881,8.668,8.668,8.668
			c4.787,0,8.668-3.88,8.668-8.668v-30.307h75.975v30.307c0,4.788,3.881,8.668,8.668,8.668c4.787,0,8.668-3.88,8.668-8.668v-30.307
			h75.976v30.307c0,4.788,3.881,8.668,8.668,8.668c4.787,0,8.668-3.88,8.668-8.668v-29.55c47.095,5.683,84.315,43.909,88.382,91.476
			H65.639C69.706,172.105,106.925,133.877,154.021,128.194z M364.93,237.007v35.735c0,5.736-4.667,10.402-10.402,10.402
			c-5.735,0-10.402-4.666-10.402-10.402v-35.735H364.93z M326.79,237.007v105.174c0,5.736-4.667,10.402-10.402,10.402
			s-10.402-4.666-10.402-10.402V237.007H326.79z M147.035,237.007v35.735c0,5.736-4.667,10.402-10.402,10.402
			s-10.402-4.666-10.402-10.402v-35.735H147.035z M56.597,315.539c-10.492,0-20.347-4.083-27.761-11.507
			c-7.415-7.406-11.5-17.266-11.5-27.765c0-21.645,17.606-39.254,39.248-39.261c0.006,0,0.01,0.001,0.016,0.001h52.294v35.735
			c0,15.294,12.443,27.738,27.738,27.738s27.738-12.444,27.738-27.738v-35.735H288.65v78.531H56.597z M446.734,361.597
			c0,12.662-10.302,22.965-22.965,22.965H88.23c-12.664,0-22.965-10.302-22.965-22.965v-28.722H288.65v9.306
			c0,15.294,12.444,27.738,27.738,27.738s27.738-12.444,27.738-27.738v-9.306h102.608V361.597z M455.403,315.54H344.126v-17.09
			c3.214,1.306,6.724,2.032,10.402,2.032c15.295,0,27.738-12.444,27.738-27.738v-35.735h73.133c0.006,0,0.01-0.001,0.016-0.001
			c10.486,0.003,20.338,4.087,27.749,11.507c7.415,7.405,11.5,17.262,11.5,27.754C494.664,297.922,477.051,315.54,455.403,315.54z"
			/>
	</g>
</g>
</svg>