<?xml version="1.0" encoding="iso-8859-1"?>
<!-- Uploaded to: SVG Repo, www.svgrepo.com, Generator: SVG Repo Mixer Tools -->
<svg fill="#ebd189" stroke-width="10" stroke="#ebd189" height="800px" width="800px" version="1.1" id="Layer_1" xmlns="http://www.w3.org/2000/svg" xmlns:xlink="http://www.w3.org/1999/xlink" 
	 viewBox="0 0 512.423 512.423" xml:space="preserve">
<g transform="translate(1 1)">
	<g>
		<g>
			<path d="M494.935,280.337c15.117-49.951,7.33-102.883-18.825-141.465c-0.484-1.289-1.25-2.376-2.246-3.22
				c-7.945-11.036-17.445-20.807-28.393-28.874c-54.671-40.786-133.641-31.241-215.214,24.298
				c-21.695,14.753-53.803,21.695-87.647,28.637C72.318,173.598-7.519,190.954-0.577,289.015
				c4.832,64.428,59.496,102.606,125.139,122.359H86.203c-5.207,0-8.678,3.471-8.678,8.678s3.471,8.678,8.678,8.678h347.119
				c5.207,0,8.678-3.471,8.678-8.678s-3.471-8.678-8.678-8.678h-72.733C428.189,388.236,476.275,342.536,494.935,280.337z
				 M424.643,357.468v-24.195c0-5.207-3.471-8.678-8.678-8.678c-5.207,0-8.678,3.471-8.678,8.678v34.712
				c0,0.819,0.095,1.59,0.26,2.317c-13.149,8.796-27.751,16.315-43.65,22.439v-33.433c0-5.207-3.471-8.678-8.678-8.678
				c-5.207,0-8.678,3.471-8.678,8.678v39.406c-22.98,7.008-48.277,11.334-75.498,12.662h-2.603V385.34
				c0-5.207-3.471-8.678-8.678-8.678c-5.207,0-8.678,3.471-8.678,8.678v26.034H227.51c-37.806-1.916-79.219-8.785-115.273-22.127
				V341.95c0-5.207-3.471-8.678-8.678-8.678c-5.207,0-8.678,3.471-8.678,8.678v40.157c-12.785-5.83-24.612-12.6-34.989-20.41
				c0.176-0.748,0.277-1.544,0.277-2.391v-52.068c0-5.207-3.471-8.678-8.678-8.678s-8.678,3.471-8.678,8.678v39.2
				c-14.874-15.954-24.416-35.236-26.034-58.292c-3.117-49.868,18.958-74.856,52.068-90.049v13.683c0,5.207,3.471,8.678,8.678,8.678
				s8.678-3.471,8.678-8.678v-20.516c18.355-6.231,38.917-10.609,59.878-15.064c12.18-2.376,24.155-4.753,35.58-7.548v34.449
				c0,5.207,3.471,8.678,8.678,8.678c5.207,0,8.678-3.471,8.678-8.678v-39.219c15.06-4.681,28.688-10.604,39.919-18.923
				c31.593-20.864,61.958-34.765,90.251-41.426v38.822c0,5.207,3.471,8.678,8.678,8.678s8.678-3.471,8.678-8.678v-42.023
				c6.794-0.902,13.454-1.367,19.959-1.367c14.576,0,28.335,2.18,40.974,6.685c-0.121,0.631-0.188,1.295-0.188,1.993v34.712
				c0,5.207,3.471,8.678,8.678,8.678c5.207,0,8.678-3.471,8.678-8.678v-28.709c3.595,2.107,7.075,4.434,10.414,7.014
				c9.336,6.909,17.459,15.271,24.298,24.727v31.679c0,5.207,3.471,8.678,8.678,8.678c4.67,0,7.935-2.798,8.56-7.131
				c10.404,29.529,11.531,63.992,1.853,97.382C468.899,308.177,450.415,335.744,424.643,357.468z"/>
			<path d="M42.813,411.374H25.457c-5.207,0-8.678,3.471-8.678,8.678s3.471,8.678,8.678,8.678h17.356
				c5.207,0,8.678-3.471,8.678-8.678S48.02,411.374,42.813,411.374z"/>
			<path d="M502.745,411.374h-34.712c-5.207,0-8.678,3.471-8.678,8.678s3.471,8.678,8.678,8.678h34.712
				c5.207,0,8.678-3.471,8.678-8.678S507.952,411.374,502.745,411.374z"/>
			<path d="M103.559,289.883c-5.207,0-8.678,3.471-8.678,8.678v8.678c0,5.207,3.471,8.678,8.678,8.678
				c5.207,0,8.678-3.471,8.678-8.678v-8.678C112.236,293.354,108.765,289.883,103.559,289.883z"/>
			<path d="M146.948,333.272c-5.207,0-8.678,3.471-8.678,8.678v17.356c0,5.207,3.471,8.678,8.678,8.678
				c5.207,0,8.678-3.471,8.678-8.678V341.95C155.626,336.744,152.155,333.272,146.948,333.272z"/>
			<path d="M190.338,289.883c-5.207,0-8.678,3.471-8.678,8.678v43.39c0,5.207,3.471,8.678,8.678,8.678
				c5.207,0,8.678-3.471,8.678-8.678v-43.39C199.016,293.354,195.545,289.883,190.338,289.883z"/>
			<path d="M294.474,220.459c-5.207,0-8.678,3.471-8.678,8.678v17.356c0,5.207,3.471,8.678,8.678,8.678s8.678-3.471,8.678-8.678
				v-17.356C303.152,223.93,299.681,220.459,294.474,220.459z"/>
			<path d="M294.474,272.527c-5.207,0-8.678,3.471-8.678,8.678v69.424c0,5.207,3.471,8.678,8.678,8.678s8.678-3.471,8.678-8.678
				v-69.424C303.152,275.998,299.681,272.527,294.474,272.527z"/>
			<path d="M468.033,203.103c-5.207,0-8.678,3.471-8.678,8.678v8.678c0,5.207,3.471,8.678,8.678,8.678s8.678-3.471,8.678-8.678
				v-8.678C476.711,206.574,473.24,203.103,468.033,203.103z"/>
		</g>
	</g>
</g>
</svg>